<svg width="12" height="12" viewBox="0 0 12 12" fill="none" xmlns="http://www.w3.org/2000/svg">
<g clip-path="url(#clip0_75_652)">
<mask id="mask0_75_652" style="mask-type:luminance" maskUnits="userSpaceOnUse" x="0" y="0" width="12" height="12">
<path d="M12 0H0V12H12V0Z" fill="white"/>
</mask>
<g mask="url(#mask0_75_652)">
<path fill-rule="evenodd" clip-rule="evenodd" d="M0.375 7.42529C0.474456 7.42529 0.569839 7.4648 0.640165 7.53512C0.710491 7.60545 0.75 7.70083 0.75 7.80029V9.67529C0.75 9.8742 0.829018 10.065 0.96967 10.2057C1.11032 10.3463 1.30109 10.4253 1.5 10.4253H10.5C10.6989 10.4253 10.8897 10.3463 11.0303 10.2057C11.171 10.065 11.25 9.8742 11.25 9.67529V7.80029C11.25 7.70083 11.2895 7.60545 11.3598 7.53512C11.4302 7.4648 11.5255 7.42529 11.625 7.42529C11.7245 7.42529 11.8198 7.4648 11.8902 7.53512C11.9605 7.60545 12 7.70083 12 7.80029V9.67529C12 10.0732 11.842 10.4547 11.5607 10.736C11.2794 11.0173 10.8978 11.1753 10.5 11.1753H1.5C1.10218 11.1753 0.720644 11.0173 0.43934 10.736C0.158035 10.4547 0 10.0732 0 9.67529V7.80029C0 7.70083 0.0395088 7.60545 0.109835 7.53512C0.180161 7.4648 0.275544 7.42529 0.375 7.42529Z" fill="#222222"/>
<path fill-rule="evenodd" clip-rule="evenodd" d="M5.73497 0.859682C5.76981 0.824759 5.81119 0.797052 5.85675 0.778148C5.90231 0.759243 5.95115 0.749512 6.00047 0.749512C6.0498 0.749512 6.09864 0.759243 6.1442 0.778148C6.18976 0.797052 6.23114 0.824759 6.26597 0.859682L8.51597 3.10968C8.58639 3.18009 8.62595 3.2756 8.62595 3.37518C8.62595 3.47476 8.58639 3.57026 8.51597 3.64068C8.44556 3.71109 8.35006 3.75065 8.25047 3.75065C8.15089 3.75065 8.05539 3.71109 7.98497 3.64068L6.37547 2.03043V8.62518C6.37547 8.72463 6.33597 8.82002 6.26564 8.89034C6.19531 8.96067 6.09993 9.00018 6.00047 9.00018C5.90102 9.00018 5.80563 8.96067 5.73531 8.89034C5.66498 8.82002 5.62547 8.72463 5.62547 8.62518V2.03043L4.01597 3.64068C3.98111 3.67554 3.93972 3.7032 3.89416 3.72207C3.84861 3.74094 3.79978 3.75065 3.75047 3.75065C3.70117 3.75065 3.65234 3.74094 3.60679 3.72207C3.56123 3.7032 3.51984 3.67554 3.48497 3.64068C3.45011 3.60581 3.42245 3.56442 3.40358 3.51887C3.38471 3.47331 3.375 3.42449 3.375 3.37518C3.375 3.32587 3.38471 3.27704 3.40358 3.23149C3.42245 3.18594 3.45011 3.14454 3.48497 3.10968L5.73497 0.859682Z" fill="#222222"/>
</g>
</g>
<defs>
<clipPath id="clip0_75_652">
<rect width="12" height="12" fill="white"/>
</clipPath>
</defs>
</svg>
