<svg width="12" height="12" viewBox="0 0 12 12" fill="none" xmlns="http://www.w3.org/2000/svg">
<g clip-path="url(#clip0_2_762)">
<path fill-rule="evenodd" clip-rule="evenodd" d="M0.375 7.42493C0.474456 7.42493 0.569839 7.46444 0.640165 7.53476C0.710491 7.60509 0.75 7.70047 0.75 7.79993V9.67493C0.75 9.87384 0.829018 10.0646 0.96967 10.2053C1.11032 10.3459 1.30109 10.4249 1.5 10.4249H10.5C10.6989 10.4249 10.8897 10.3459 11.0303 10.2053C11.171 10.0646 11.25 9.87384 11.25 9.67493V7.79993C11.25 7.70047 11.2895 7.60509 11.3598 7.53476C11.4302 7.46444 11.5255 7.42493 11.625 7.42493C11.7245 7.42493 11.8198 7.46444 11.8902 7.53476C11.9605 7.60509 12 7.70047 12 7.79993V9.67493C12 10.0728 11.842 10.4543 11.5607 10.7356C11.2794 11.0169 10.8978 11.1749 10.5 11.1749H1.5C1.10218 11.1749 0.720644 11.0169 0.43934 10.7356C0.158035 10.4543 0 10.0728 0 9.67493V7.79993C0 7.70047 0.0395088 7.60509 0.109835 7.53476C0.180161 7.46444 0.275544 7.42493 0.375 7.42493Z" fill="white"/>
<path fill-rule="evenodd" clip-rule="evenodd" d="M5.73497 0.859438C5.76981 0.824515 5.81119 0.796808 5.85675 0.777904C5.90231 0.758999 5.95115 0.749268 6.00047 0.749268C6.0498 0.749268 6.09864 0.758999 6.1442 0.777904C6.18976 0.796808 6.23114 0.824515 6.26597 0.859438L8.51597 3.10944C8.58639 3.17985 8.62595 3.27536 8.62595 3.37494C8.62595 3.47452 8.58639 3.57002 8.51597 3.64044C8.44556 3.71085 8.35006 3.75041 8.25047 3.75041C8.15089 3.75041 8.05539 3.71085 7.98497 3.64044L6.37547 2.03019V8.62494C6.37547 8.72439 6.33597 8.81978 6.26564 8.8901C6.19531 8.96043 6.09993 8.99994 6.00047 8.99994C5.90102 8.99994 5.80563 8.96043 5.73531 8.8901C5.66498 8.81978 5.62547 8.72439 5.62547 8.62494V2.03019L4.01597 3.64044C3.98111 3.6753 3.93972 3.70296 3.89416 3.72183C3.84861 3.7407 3.79978 3.75041 3.75047 3.75041C3.70117 3.75041 3.65234 3.7407 3.60679 3.72183C3.56123 3.70296 3.51984 3.6753 3.48497 3.64044C3.45011 3.60557 3.42245 3.56418 3.40358 3.51863C3.38471 3.47307 3.375 3.42425 3.375 3.37494C3.375 3.32563 3.38471 3.2768 3.40358 3.23125C3.42245 3.1857 3.45011 3.1443 3.48497 3.10944L5.73497 0.859438Z" fill="white"/>
</g>
<defs>
<clipPath id="clip0_2_762">
<rect width="12" height="12" fill="white"/>
</clipPath>
</defs>
</svg>
